<svg xmlns="http://www.w3.org/2000/svg" xmlns:xlink="http://www.w3.org/1999/xlink" id="Ebene_1" width="93.58" height="93.58" x="0" y="0" enable-background="new 0 0 93.58 93.58" version="1.1" viewBox="0 0 93.58 93.58" xml:space="preserve"><g><g><circle cx="46.88" cy="46.792" r="45.374" fill="none" stroke="#FEB672" stroke-miterlimit="10" stroke-width="2.835"/></g><path fill="#FEB672" d="M64.379,40.958v24.062c0,1.208-0.979,2.188-2.188,2.188H31.567c-1.208,0-2.188-0.979-2.188-2.188V28.562 c0-1.208,0.98-2.188,2.188-2.188h18.229v12.396c0,1.208,0.979,2.188,2.188,2.188H64.379z M55.629,44.604 c0-0.41-0.318-0.729-0.729-0.729H38.858c-0.41,0-0.729,0.319-0.729,0.729v1.458c0,0.41,0.319,0.729,0.729,0.729H54.9 c0.41,0,0.729-0.319,0.729-0.729V44.604z M55.629,50.438c0-0.41-0.318-0.729-0.729-0.729H38.858c-0.41,0-0.729,0.319-0.729,0.729 v1.458c0,0.41,0.319,0.729,0.729,0.729H54.9c0.41,0,0.729-0.319,0.729-0.729V50.438z M55.629,56.271 c0-0.41-0.318-0.729-0.729-0.729H38.858c-0.41,0-0.729,0.319-0.729,0.729v1.458c0,0.41,0.319,0.729,0.729,0.729H54.9 c0.41,0,0.729-0.319,0.729-0.729V56.271z M63.468,38.042H52.713V27.287c0.318,0.205,0.592,0.41,0.82,0.638l9.297,9.297 C63.059,37.449,63.264,37.723,63.468,38.042z"/></g></svg>